<svg width="156" height="58" viewBox="0 0 156 58" fill="none" xmlns="http://www.w3.org/2000/svg">
    <path d="M13.6719 8.67188C17.9531 8.67188 21.7812 13.1667 25.1562 22.1562C26.25 25.7083 26.7969 28.3802 26.7969 30.1719V30.3594C26.7969 32.2135 25.5781 33.3073 23.1406 33.6406C21.5156 33.6406 20.1823 32.4219 19.1406 29.9844H16.2188C10.625 30.276 7.82812 30.7031 7.82812 31.2656C7.53646 32.7969 6.875 33.7292 5.84375 34.0625C5.54167 34.1562 5.22396 34.2031 4.89062 34.2031C4.10938 34.2031 3.25521 33.9271 2.32812 33.375C1.29688 32.7604 0.78125 31.901 0.78125 30.7969C0.78125 30.4948 0.822917 30.1667 0.90625 29.8125C0.90625 28.5625 2.91146 23.7604 6.92188 15.4062C9.28646 10.9167 11.5365 8.67188 13.6719 8.67188ZM9.95312 23.2656C11.9844 22.9844 14.1615 22.8438 16.4844 22.8438C16.9115 22.8438 17.349 22.849 17.7969 22.8594C17.1406 20.6406 15.8333 18.4844 13.875 16.3906C12.4375 18.4115 11.1302 20.7031 9.95312 23.2656ZM32.3594 6.48438H33.0781C34.8594 6.48438 35.9531 7.69792 36.3594 10.125C35.6302 18.8125 35.2656 23.7917 35.2656 25.0625L35.8125 25.4375C38.9896 24.9479 40.875 24.7031 41.4688 24.7031C43.8958 25.151 45.1094 26.3646 45.1094 28.3438C45.1094 30.625 43.651 31.8438 40.7344 32C37.6302 32.4792 35.6875 32.7188 34.9062 32.7188C31.8229 32.7188 29.6979 31.5677 28.5312 29.2656C28.2812 28.4219 28.1562 27.6927 28.1562 27.0781V24.7031C28.6667 13.2865 29.276 7.57812 29.9844 7.57812C30.7865 6.84896 31.5781 6.48438 32.3594 6.48438ZM57.9531 8.32812C61.7865 8.32812 65.0573 9.53125 67.7656 11.9375C70.4844 14.3438 71.8438 17.25 71.8438 20.6562C71.8438 24.0625 70.4844 26.9688 67.7656 29.375C65.0573 31.7812 61.7865 32.9844 57.9531 32.9844C54.1094 32.9844 50.8333 31.7812 48.125 29.375C45.4167 26.9688 44.0625 24.0625 44.0625 20.6562C44.0625 17.25 45.4167 14.3438 48.125 11.9375C50.8333 9.53125 54.1094 8.32812 57.9531 8.32812ZM58.5781 27.0625C59.0573 27.0417 59.9948 26.401 61.3906 25.1406C62.7865 23.8802 63.8438 22.2188 64.5625 20.1562C64.8021 19.4583 64.9219 18.7969 64.9219 18.1719C64.9219 16.9531 64.4635 15.8854 63.5469 14.9688C63.0885 14.5104 62.5781 14.2812 62.0156 14.2812C60.8906 14.2812 59.5573 15.2188 58.0156 17.0938C56.0469 15.4896 54.5 14.6875 53.375 14.6875C52.9375 14.6875 52.5677 14.8021 52.2656 15.0312C51.2552 15.8021 50.75 16.974 50.75 18.5469C50.75 18.7135 50.7812 19.3073 50.8438 20.3281C50.9167 21.3385 51.875 22.7188 53.7188 24.4688C55.5417 26.2083 56.9219 27.0781 57.8594 27.0781C57.8698 27.0781 58.1094 27.0729 58.5781 27.0625Z" fill="#369FFF"/>
    <path d="M98.7656 7.03125C100.953 7.53125 102.047 8.625 102.047 10.3125V10.8594C101.443 14.8802 101.141 18.099 101.141 20.5156V21.7812C101.141 23.3542 101.234 24.9635 101.422 26.6094C101.484 27.2135 101.516 27.7708 101.516 28.2812C101.516 29.1875 101.417 29.9688 101.219 30.625C100.896 31.6562 99.776 32.1719 97.8594 32.1719C95.724 32.1719 94.4948 31.4062 94.1719 29.875C93.8594 28.3438 93.7031 26.4375 93.7031 24.1562C92.1615 23.9896 90.6562 23.9062 89.1875 23.9062C87.7292 23.9062 86.3021 23.9896 84.9062 24.1562C84.9062 25.2083 85.0885 26.9115 85.4531 29.2656V29.625C85.4531 31.5208 84.2396 32.6146 81.8125 32.9062C79.2604 32.4688 77.9844 30.8281 77.9844 27.9844V24.6562H77.875C76.6667 24.6562 75.9792 23.5833 75.8125 21.4375C75.7917 21.2292 75.7812 21.0208 75.7812 20.8125C75.7812 18.9688 76.474 17.7656 77.8594 17.2031C78.0885 12.8594 78.5625 10.2552 79.2812 9.39062C79.8229 8.72396 80.625 8.39062 81.6875 8.39062C82.0104 8.39062 82.3542 8.42188 82.7188 8.48438C84.3438 8.48438 85.3802 9.57812 85.8281 11.7656V12.3125C85.3385 14.3646 85.0573 15.9167 84.9844 16.9688C86.5573 16.8333 88.0312 16.7656 89.4062 16.7656C91.0208 16.7656 92.4896 16.8594 93.8125 17.0469L94.5781 11.7656C95.0156 8.60938 96.4115 7.03125 98.7656 7.03125ZM115.766 8.67188C120.047 8.67188 123.875 13.1667 127.25 22.1562C128.344 25.7083 128.891 28.3802 128.891 30.1719V30.3594C128.891 32.2135 127.672 33.3073 125.234 33.6406C123.609 33.6406 122.276 32.4219 121.234 29.9844H118.312C112.719 30.276 109.922 30.7031 109.922 31.2656C109.63 32.7969 108.969 33.7292 107.938 34.0625C107.635 34.1562 107.318 34.2031 106.984 34.2031C106.203 34.2031 105.349 33.9271 104.422 33.375C103.391 32.7604 102.875 31.901 102.875 30.7969C102.875 30.4948 102.917 30.1667 103 29.8125C103 28.5625 105.005 23.7604 109.016 15.4062C111.38 10.9167 113.63 8.67188 115.766 8.67188ZM112.047 23.2656C114.078 22.9844 116.255 22.8438 118.578 22.8438C119.005 22.8438 119.443 22.849 119.891 22.8594C119.234 20.6406 117.927 18.4844 115.969 16.3906C114.531 18.4115 113.224 20.7031 112.047 23.2656ZM150.406 6.51562C152.344 7.09896 153.578 9.51042 154.109 13.75C154.547 17.3438 154.766 20.7656 154.766 24.0156C154.766 24.5885 154.76 25.1562 154.75 25.7188C154.656 29.4688 153.286 31.6198 150.641 32.1719C148.318 32.1719 145.703 30.2292 142.797 26.3438C139.568 22.5729 137.865 20.6875 137.688 20.6875H137.516L137.328 21.0625V29.2656C137.328 30.7865 136.479 31.8802 134.781 32.5469H132.953C131.13 31.974 130.219 30.8802 130.219 29.2656V20.1406C130.219 15.0885 130.948 12.0521 132.406 11.0312C133.25 10.4271 134.042 10.125 134.781 10.125H135.516C137.849 10.125 141.385 13.2448 146.125 19.4844C146.354 19.599 146.536 19.6562 146.672 19.6562L146.844 19.2969C146.26 16.0885 145.969 13.5365 145.969 11.6406C145.969 9.30729 146.411 7.96354 147.297 7.60938C147.797 6.88021 148.833 6.51562 150.406 6.51562Z" fill="#0057A7"/>
    <path opacity="0.3" d="M31 28L40.0413 32.7401C66.4738 46.5979 98.1644 45.9411 124 31V31" stroke="url(#paint0_linear_728_103458)" stroke-width="2" stroke-linecap="round"/>
    <path opacity="0.3" d="M32.5 32V32C43.9965 39.2264 57.068 43.57 70.6031 44.6615L81 45.5" stroke="url(#paint1_linear_728_103458)" stroke-linecap="round"/>
    <path opacity="0.3" d="M128.5 32L119.659 36.7364C116.224 38.5764 112.662 40.1684 109 41.5V41.5" stroke="url(#paint2_linear_728_103458)" stroke-linecap="round"/>
    <path opacity="0.3" d="M99.585 37.7671V37.7671C92.931 39.9001 85.9131 40.6599 78.9567 40.0003L78.0001 39.9096" stroke="url(#paint3_linear_728_103458)" stroke-linecap="round"/>
    <path d="M96.373 41.6283L74.1315 35.9537C73.2529 35.7295 72.5535 36.6966 73.0415 37.4608L77.7146 44.7792C77.9331 45.1215 78.3369 45.2976 78.7364 45.2249L96.3594 42.0188C96.5707 41.9804 96.5811 41.6814 96.373 41.6283Z" fill="#68B6FF"/>
    <path d="M77.7614 55.9786L96.548 42.373C96.7204 42.2481 96.6043 41.9761 96.3949 42.0142L78.7473 45.2247C78.3423 45.2984 78.0238 45.6128 77.9448 46.0168L76.1934 54.9769C76.0193 55.8676 77.0264 56.511 77.7614 55.9786Z" fill="#4390EB"/>
    <defs>
        <linearGradient id="paint0_linear_728_103458" x1="44" y1="36" x2="124" y2="36" gradientUnits="userSpaceOnUse">
            <stop stop-color="#369FFF"/>
            <stop offset="1" stop-color="#0057A7"/>
        </linearGradient>
        <linearGradient id="paint1_linear_728_103458" x1="44" y1="43" x2="124" y2="43" gradientUnits="userSpaceOnUse">
            <stop stop-color="#369FFF"/>
            <stop offset="1" stop-color="#0057A7"/>
        </linearGradient>
        <linearGradient id="paint2_linear_728_103458" x1="94.5" y1="43" x2="174.5" y2="43" gradientUnits="userSpaceOnUse">
            <stop stop-color="#369FFF"/>
            <stop offset="1" stop-color="#0057A7"/>
        </linearGradient>
        <linearGradient id="paint3_linear_728_103458" x1="63.8807" y1="36.2845" x2="138.909" y2="64.0469" gradientUnits="userSpaceOnUse">
            <stop stop-color="#369FFF"/>
            <stop offset="1" stop-color="#0057A7"/>
        </linearGradient>
    </defs>
</svg>
