<svg width="10" height="10" viewBox="0 0 10 10" fill="none" xmlns="http://www.w3.org/2000/svg">
<path fill-rule="evenodd" clip-rule="evenodd" d="M4.41536 0.332031C2.1602 0.332031 0.332031 2.1602 0.332031 4.41536C0.332031 6.67053 2.1602 8.4987 4.41536 8.4987C5.33256 8.4987 6.17913 8.19629 6.8608 7.68575L8.91119 9.73613L9.73614 8.91118L7.68576 6.86079C8.1963 6.17912 8.4987 5.33256 8.4987 4.41536C8.4987 2.1602 6.67053 0.332031 4.41536 0.332031ZM1.4987 4.41536C1.4987 2.80453 2.80453 1.4987 4.41536 1.4987C6.0262 1.4987 7.33203 2.80453 7.33203 4.41536C7.33203 6.0262 6.0262 7.33203 4.41536 7.33203C2.80453 7.33203 1.4987 6.0262 1.4987 4.41536Z" fill="#8D8A95"/>
</svg>
