<svg class="sorting_asc" width="52" height="26" viewBox="0 0 52 26" fill="none" xmlns="http://www.w3.org/2000/svg">
    <rect x="1.05" y="1.05" width="49.9" height="23.9" rx="11.95" fill="#110C22"/>
    <rect x="1.05" y="1.05" width="49.9" height="23.9" rx="11.95" stroke="#8D8A95" stroke-width="0.4"/>
    <path id="icon_up" d="M21.5 9.82843C21.5 9.45285 21.0459 9.26475 20.7803 9.53033V9.53033C20.4874 9.82322 20.0126 9.82322 19.7197 9.53033C19.4268 9.23744 19.4268 8.76256 19.7197 8.46967L21.7197 6.46967C22.0126 6.17678 22.4874 6.17678 22.7803 6.46967L24.7803 8.46967C25.0732 8.76256 25.0732 9.23744 24.7803 9.53033C24.4874 9.82322 24.0126 9.82322 23.7197 9.53033V9.53033C23.4541 9.26475 23 9.45285 23 9.82843L23 19C23 19.4142 22.6642 19.75 22.25 19.75C21.8358 19.75 21.5 19.4142 21.5 19L21.5 9.82843Z" fill="currentColor"/>
    <path id="icon_down" d="M32.2803 16.4697C31.9874 16.1768 31.5126 16.1768 31.2197 16.4697L30.5 17.1893L30.5 7C30.5 6.58579 30.1642 6.25 29.75 6.25C29.3358 6.25 29 6.58579 29 7L29 17.1893L28.2803 16.4697C27.9874 16.1768 27.5126 16.1768 27.2197 16.4697C26.9268 16.7626 26.9268 17.2374 27.2197 17.5303L29.2197 19.5303C29.5126 19.8232 29.9874 19.8232 30.2803 19.5303L32.2803 17.5303C32.5732 17.2374 32.5732 16.7626 32.2803 16.4697Z" fill="currentColor"/>
</svg>
