<svg width="52" height="26" viewBox="0 0 52 26" fill="none" xmlns="http://www.w3.org/2000/svg">
<rect x="1.05" y="1.05" width="49.9" height="23.9" rx="11.95" fill="#110C22"/>
<rect x="1.05" y="1.05" width="49.9" height="23.9" rx="11.95" stroke="#8D8A95" stroke-width="0.4"/>
<path id="down-arrow" d="M23 17.1893L23.7197 16.4697C24.0126 16.1768 24.4874 16.1768 24.7803 16.4697C25.0732 16.7626 25.0732 17.2374 24.7803 17.5303L22.7803 19.5303C22.4874 19.8232 22.0126 19.8232 21.7197 19.5303L19.7197 17.5303C19.4268 17.2374 19.4268 16.7626 19.7197 16.4697C20.0126 16.1768 20.4874 16.1768 20.7803 16.4697L21.5 17.1893L21.5 7C21.5 6.58579 21.8358 6.25 22.25 6.25C22.6642 6.25 23 6.58579 23 7L23 17.1893Z" fill="#8D8A95"/>
<path id="up-arrow" d="M27.2197 9.53033C27.5126 9.82322 27.9874 9.82322 28.2803 9.53033L29 8.81066L29 19C29 19.4142 29.3358 19.75 29.75 19.75C30.1642 19.75 30.5 19.4142 30.5 19L30.5 8.81066L31.2197 9.53033C31.5126 9.82322 31.9874 9.82322 32.2803 9.53033C32.5732 9.23744 32.5732 8.76256 32.2803 8.46967L30.2803 6.46967C29.9874 6.17678 29.5126 6.17678 29.2197 6.46967L27.2197 8.46967C26.9268 8.76256 26.9268 9.23744 27.2197 9.53033Z" fill="#8D8A95"/>
</svg>
